<svg width="61" height="20" viewBox="0 0 61 20" fill="none" xmlns="http://www.w3.org/2000/svg">
<path d="M31 0H0V20H31V0Z" fill="#555555"/>
<path d="M61 0H30V20H61V0Z" fill="#007EC6"/>
<path d="M61 0H0V20H61V0Z" fill="url(#paint0_linear)"/>
<path d="M10.4561 13.2705C10.4561 13.8184 10.2287 14.2677 9.77393 14.6187C9.32275 14.9696 8.70508 15.145 7.9209 15.145C7.47689 15.145 7.06868 15.0931 6.69629 14.9893C6.32747 14.8818 6.01774 14.7655 5.76709 14.6401V13.5068H5.8208C6.13949 13.7467 6.49398 13.9383 6.88428 14.0815C7.27458 14.2212 7.64876 14.291 8.00684 14.291C8.45085 14.291 8.79818 14.2194 9.04883 14.0762C9.29948 13.9329 9.4248 13.7074 9.4248 13.3994C9.4248 13.1631 9.35677 12.984 9.2207 12.8623C9.08464 12.7406 8.82324 12.6367 8.43652 12.5508C8.29329 12.5186 8.10531 12.481 7.87256 12.438C7.64339 12.395 7.43392 12.3485 7.24414 12.2983C6.71777 12.1587 6.34359 11.9546 6.12158 11.686C5.90316 11.4139 5.79395 11.0809 5.79395 10.687C5.79395 10.4399 5.84408 10.2072 5.94434 9.98877C6.04818 9.77035 6.20394 9.5752 6.41162 9.40332C6.61214 9.23503 6.86637 9.10254 7.17432 9.00586C7.48584 8.9056 7.83317 8.85547 8.21631 8.85547C8.57438 8.85547 8.93604 8.90023 9.30127 8.98975C9.67008 9.07568 9.97624 9.18132 10.2197 9.30664V10.3862H10.166C9.9082 10.1965 9.59489 10.0371 9.22607 9.9082C8.85726 9.77572 8.49561 9.70947 8.14111 9.70947C7.7723 9.70947 7.46077 9.78109 7.20654 9.92432C6.95231 10.064 6.8252 10.2734 6.8252 10.5527C6.8252 10.7998 6.90218 10.986 7.05615 11.1113C7.20654 11.2367 7.45003 11.3387 7.78662 11.4175C7.97282 11.4604 8.1805 11.5034 8.40967 11.5464C8.64242 11.5894 8.83577 11.6287 8.98975 11.6646C9.45882 11.772 9.82048 11.9564 10.0747 12.2178C10.3289 12.4827 10.4561 12.8337 10.4561 13.2705ZM12.9912 7.99609H11.8525V6.94873H12.9912V7.99609ZM12.9268 15H11.917V9.00049H12.9268V15ZM18.04 14.9463C17.8503 14.9964 17.6426 15.0376 17.417 15.0698C17.195 15.1021 16.9963 15.1182 16.8208 15.1182C16.2085 15.1182 15.743 14.9535 15.4243 14.624C15.1056 14.2946 14.9463 13.7664 14.9463 13.0396V9.84912H14.2642V9.00049H14.9463V7.27637H15.9561V9.00049H18.04V9.84912H15.9561V12.583C15.9561 12.8981 15.9632 13.1452 15.9775 13.3242C15.9919 13.4997 16.042 13.6644 16.1279 13.8184C16.2067 13.9616 16.3141 14.0672 16.4502 14.1353C16.5898 14.1997 16.8011 14.2319 17.084 14.2319C17.2487 14.2319 17.4206 14.2087 17.5996 14.1621C17.7786 14.112 17.9076 14.0708 17.9863 14.0386H18.04V14.9463ZM24.2866 12.105H19.8662C19.8662 12.4738 19.9217 12.7961 20.0327 13.0718C20.1437 13.3439 20.2959 13.5677 20.4893 13.7432C20.6755 13.915 20.8957 14.0439 21.1499 14.1299C21.4077 14.2158 21.6906 14.2588 21.9985 14.2588C22.4067 14.2588 22.8167 14.1782 23.2285 14.0171C23.6439 13.8524 23.9393 13.6912 24.1147 13.5337H24.1685V14.6348C23.8283 14.778 23.481 14.8979 23.1265 14.9946C22.772 15.0913 22.3996 15.1396 22.0093 15.1396C21.0138 15.1396 20.2368 14.8711 19.6782 14.334C19.1196 13.7933 18.8403 13.027 18.8403 12.0352C18.8403 11.054 19.1071 10.2752 19.6406 9.69873C20.1777 9.12223 20.8831 8.83398 21.7568 8.83398C22.5661 8.83398 23.1891 9.07031 23.626 9.54297C24.0664 10.0156 24.2866 10.687 24.2866 11.5571V12.105ZM23.3037 11.3315C23.3001 10.8016 23.1659 10.3916 22.9009 10.1016C22.6395 9.81152 22.2402 9.6665 21.7031 9.6665C21.1624 9.6665 20.731 9.82585 20.4087 10.1445C20.09 10.4632 19.9092 10.8589 19.8662 11.3315H23.3037Z" fill="#010101" fill-opacity="0.3"/>
<path d="M10.4561 12.2705C10.4561 12.8184 10.2287 13.2677 9.77393 13.6187C9.32275 13.9696 8.70508 14.145 7.9209 14.145C7.47689 14.145 7.06868 14.0931 6.69629 13.9893C6.32747 13.8818 6.01774 13.7655 5.76709 13.6401V12.5068H5.8208C6.13949 12.7467 6.49398 12.9383 6.88428 13.0815C7.27458 13.2212 7.64876 13.291 8.00684 13.291C8.45085 13.291 8.79818 13.2194 9.04883 13.0762C9.29948 12.9329 9.4248 12.7074 9.4248 12.3994C9.4248 12.1631 9.35677 11.984 9.2207 11.8623C9.08464 11.7406 8.82324 11.6367 8.43652 11.5508C8.29329 11.5186 8.10531 11.481 7.87256 11.438C7.64339 11.395 7.43392 11.3485 7.24414 11.2983C6.71777 11.1587 6.34359 10.9546 6.12158 10.686C5.90316 10.4139 5.79395 10.0809 5.79395 9.68701C5.79395 9.43994 5.84408 9.20719 5.94434 8.98877C6.04818 8.77035 6.20394 8.5752 6.41162 8.40332C6.61214 8.23503 6.86637 8.10254 7.17432 8.00586C7.48584 7.9056 7.83317 7.85547 8.21631 7.85547C8.57438 7.85547 8.93604 7.90023 9.30127 7.98975C9.67008 8.07568 9.97624 8.18132 10.2197 8.30664V9.38623H10.166C9.9082 9.19645 9.59489 9.03711 9.22607 8.9082C8.85726 8.77572 8.49561 8.70947 8.14111 8.70947C7.7723 8.70947 7.46077 8.78109 7.20654 8.92432C6.95231 9.06396 6.8252 9.27344 6.8252 9.55273C6.8252 9.7998 6.90218 9.986 7.05615 10.1113C7.20654 10.2367 7.45003 10.3387 7.78662 10.4175C7.97282 10.4604 8.1805 10.5034 8.40967 10.5464C8.64242 10.5894 8.83577 10.6287 8.98975 10.6646C9.45882 10.772 9.82048 10.9564 10.0747 11.2178C10.3289 11.4827 10.4561 11.8337 10.4561 12.2705ZM12.9912 6.99609H11.8525V5.94873H12.9912V6.99609ZM12.9268 14H11.917V8.00049H12.9268V14ZM18.04 13.9463C17.8503 13.9964 17.6426 14.0376 17.417 14.0698C17.195 14.1021 16.9963 14.1182 16.8208 14.1182C16.2085 14.1182 15.743 13.9535 15.4243 13.624C15.1056 13.2946 14.9463 12.7664 14.9463 12.0396V8.84912H14.2642V8.00049H14.9463V6.27637H15.9561V8.00049H18.04V8.84912H15.9561V11.583C15.9561 11.8981 15.9632 12.1452 15.9775 12.3242C15.9919 12.4997 16.042 12.6644 16.1279 12.8184C16.2067 12.9616 16.3141 13.0672 16.4502 13.1353C16.5898 13.1997 16.8011 13.2319 17.084 13.2319C17.2487 13.2319 17.4206 13.2087 17.5996 13.1621C17.7786 13.112 17.9076 13.0708 17.9863 13.0386H18.04V13.9463ZM24.2866 11.105H19.8662C19.8662 11.4738 19.9217 11.7961 20.0327 12.0718C20.1437 12.3439 20.2959 12.5677 20.4893 12.7432C20.6755 12.915 20.8957 13.0439 21.1499 13.1299C21.4077 13.2158 21.6906 13.2588 21.9985 13.2588C22.4067 13.2588 22.8167 13.1782 23.2285 13.0171C23.6439 12.8524 23.9393 12.6912 24.1147 12.5337H24.1685V13.6348C23.8283 13.778 23.481 13.8979 23.1265 13.9946C22.772 14.0913 22.3996 14.1396 22.0093 14.1396C21.0138 14.1396 20.2368 13.8711 19.6782 13.334C19.1196 12.7933 18.8403 12.027 18.8403 11.0352C18.8403 10.054 19.1071 9.27523 19.6406 8.69873C20.1777 8.12223 20.8831 7.83398 21.7568 7.83398C22.5661 7.83398 23.1891 8.07031 23.626 8.54297C24.0664 9.01562 24.2866 9.68701 24.2866 10.5571V11.105ZM23.3037 10.3315C23.3001 9.8016 23.1659 9.3916 22.9009 9.10156C22.6395 8.81152 22.2402 8.6665 21.7031 8.6665C21.1624 8.6665 20.731 8.82585 20.4087 9.14453C20.09 9.46322 19.9092 9.85889 19.8662 10.3315H23.3037Z" fill="white"/>
<path d="M39.4307 9.00049L37.0029 15H35.9878L33.5762 9.00049H34.6719L36.5303 13.7754L38.3726 9.00049H39.4307ZM45.5806 15H41.2515V14.1836H42.9165V8.82324H41.2515V8.09277C41.4771 8.09277 41.7188 8.07487 41.9766 8.03906C42.2344 7.99967 42.4295 7.94417 42.562 7.87256C42.7267 7.78304 42.8556 7.67025 42.9487 7.53418C43.0454 7.39453 43.1009 7.20833 43.1152 6.97559H43.9478V14.1836H45.5806V15ZM49.394 15H48.1104V13.4692H49.394V15ZM57.0264 10.9985C57.0264 12.4344 56.8008 13.4889 56.3496 14.1621C55.902 14.8317 55.2056 15.1665 54.2603 15.1665C53.3006 15.1665 52.5988 14.8263 52.1548 14.146C51.7144 13.4657 51.4941 12.4201 51.4941 11.0093C51.4941 9.58773 51.7179 8.53857 52.1655 7.86182C52.6131 7.18148 53.3114 6.84131 54.2603 6.84131C55.2199 6.84131 55.9199 7.18685 56.3604 7.87793C56.8044 8.56543 57.0264 9.60563 57.0264 10.9985ZM55.6138 13.437C55.7391 13.147 55.8232 12.8068 55.8662 12.4165C55.9128 12.0226 55.936 11.55 55.936 10.9985C55.936 10.4543 55.9128 9.98161 55.8662 9.58057C55.8232 9.17952 55.7373 8.83936 55.6084 8.56006C55.4831 8.28434 55.3112 8.07666 55.0928 7.93701C54.8779 7.79736 54.6004 7.72754 54.2603 7.72754C53.9237 7.72754 53.6444 7.79736 53.4224 7.93701C53.2039 8.07666 53.0303 8.28792 52.9014 8.5708C52.7796 8.83577 52.6955 9.18132 52.6489 9.60742C52.606 10.0335 52.5845 10.5008 52.5845 11.0093C52.5845 11.5679 52.6042 12.0352 52.6436 12.4111C52.6829 12.7871 52.7671 13.1237 52.896 13.4209C53.0142 13.7002 53.1807 13.9132 53.3955 14.0601C53.6139 14.2069 53.9022 14.2803 54.2603 14.2803C54.5968 14.2803 54.8761 14.2104 55.0981 14.0708C55.3201 13.9312 55.492 13.7199 55.6138 13.437Z" fill="#010101" fill-opacity="0.3"/>
<path d="M39.4307 8.00049L37.0029 14H35.9878L33.5762 8.00049H34.6719L36.5303 12.7754L38.3726 8.00049H39.4307ZM45.5806 14H41.2515V13.1836H42.9165V7.82324H41.2515V7.09277C41.4771 7.09277 41.7188 7.07487 41.9766 7.03906C42.2344 6.99967 42.4295 6.94417 42.562 6.87256C42.7267 6.78304 42.8556 6.67025 42.9487 6.53418C43.0454 6.39453 43.1009 6.20833 43.1152 5.97559H43.9478V13.1836H45.5806V14ZM49.394 14H48.1104V12.4692H49.394V14ZM57.0264 9.99854C57.0264 11.4344 56.8008 12.4889 56.3496 13.1621C55.902 13.8317 55.2056 14.1665 54.2603 14.1665C53.3006 14.1665 52.5988 13.8263 52.1548 13.146C51.7144 12.4657 51.4941 11.4201 51.4941 10.0093C51.4941 8.58773 51.7179 7.53857 52.1655 6.86182C52.6131 6.18148 53.3114 5.84131 54.2603 5.84131C55.2199 5.84131 55.9199 6.18685 56.3604 6.87793C56.8044 7.56543 57.0264 8.60563 57.0264 9.99854ZM55.6138 12.437C55.7391 12.147 55.8232 11.8068 55.8662 11.4165C55.9128 11.0226 55.936 10.55 55.936 9.99854C55.936 9.45426 55.9128 8.98161 55.8662 8.58057C55.8232 8.17952 55.7373 7.83936 55.6084 7.56006C55.4831 7.28434 55.3112 7.07666 55.0928 6.93701C54.8779 6.79736 54.6004 6.72754 54.2603 6.72754C53.9237 6.72754 53.6444 6.79736 53.4224 6.93701C53.2039 7.07666 53.0303 7.28792 52.9014 7.5708C52.7796 7.83577 52.6955 8.18132 52.6489 8.60742C52.606 9.03353 52.5845 9.50081 52.5845 10.0093C52.5845 10.5679 52.6042 11.0352 52.6436 11.4111C52.6829 11.7871 52.7671 12.1237 52.896 12.4209C53.0142 12.7002 53.1807 12.9132 53.3955 13.0601C53.6139 13.2069 53.9022 13.2803 54.2603 13.2803C54.5968 13.2803 54.8761 13.2104 55.0981 13.0708C55.3201 12.9312 55.492 12.7199 55.6138 12.437Z" fill="white"/>
<defs>
<linearGradient id="paint0_linear" x1="0" y1="0" x2="0" y2="20" gradientUnits="userSpaceOnUse">
<stop stop-color="#BBBBBB" stop-opacity="0.1"/>
<stop offset="1" stop-opacity="0.1"/>
</linearGradient>
</defs>
</svg>
